# xmcd
# Track frame offsets:
# 150
# 14561
# 25137
# 38177
# 51635
# 65113
# 77734
# 90791
# 103292
# 117490
# 130040
# 141851
# 154311
# 168804
# 182295
# 196921
#
# Disc length: 2821 seconds
# Revision: 0
# Processed by: cddbd v1.5.1PL2 Copyright (c) Steve Scherf et al.
# Submitted via: VisiTrax 2.9.10.228 - For more info visit www.synapsa.com
#
DISCID=d70b0310
DTITLE=Bill Monroe - The legend lives on
DYEAR=1900
DGENRE=Bluegrass
TTITLE0=Little cabin home on the hill
TTITLE1=Blue grass breakdown
TTITLE2=It's mighty dark to travel
TTITLE3=My rose of old Kentucky
TTITLE4=I hear a sweet voice calling
TTITLE5=Sweetheart you done me wrong
TTITLE6=That home above
TTITLE7=Little cummunity church
TTITLE8=Along about daybreak
TTITLE9=When you are lonely
TTITLE10=I'm travelin' on and on
TTITLE11=Molly and Tenbrooks
TTITLE12=Travelin' this lonesome road
TTITLE13=Blue grass stomp
TTITLE14=The girl in the blue velvet band
TTITLE15=Can't you hear me callin'
EXTD=
EXTT0=
EXTT1=
EXTT2=
EXTT3=
EXTT4=
EXTT5=
EXTT6=
EXTT7=
EXTT8=
EXTT9=
EXTT10=
EXTT11=
EXTT12=
EXTT13=
EXTT14=
EXTT15=
PLAYORDER=
